<svg width="14" height="14" viewBox="0 0 14 14" fill="none" xmlns="http://www.w3.org/2000/svg">
<path fill-rule="evenodd" clip-rule="evenodd" d="M6.23548 0.00408648C6.38412 0.00385386 6.54403 0.00392562 6.71659 0.00400305L7.001 0.00408648C9.27942 0.00408648 9.54947 0.0122643 10.4492 0.0531537C11.2812 0.0911985 11.7328 0.230222 12.0336 0.347023C12.4318 0.501692 12.7157 0.686582 13.0142 0.985252C13.3129 1.28392 13.4978 1.56837 13.6528 1.9666C13.7696 2.26704 13.9088 2.7186 13.9467 3.55061C13.9876 4.45018 13.9964 4.7204 13.9964 6.99776C13.9964 9.27512 13.9876 9.54534 13.9467 10.4449C13.9086 11.2769 13.7696 11.7285 13.6528 12.0289C13.4981 12.4271 13.3129 12.7107 13.0142 13.0092C12.7155 13.3079 12.432 13.4928 12.0336 13.6474C11.7331 13.7648 11.2812 13.9034 10.4492 13.9415C9.54965 13.9824 9.27942 13.9913 7.001 13.9913C4.7224 13.9913 4.45235 13.9824 3.55279 13.9415C2.72078 13.9031 2.26922 13.7641 1.96824 13.6472C1.57001 13.4926 1.28556 13.3077 0.986892 13.009C0.688223 12.7104 0.503332 12.4266 0.348308 12.0282C0.231507 11.7278 0.0923053 11.2762 0.0544383 10.4442C0.013549 9.54463 0.00537109 9.2744 0.00537109 6.99563C0.00537109 4.71685 0.013549 4.44804 0.0544383 3.54848C0.0924831 2.71647 0.231507 2.26491 0.348308 1.96411C0.502976 1.56588 0.688223 1.28143 0.986892 0.982763C1.28556 0.684094 1.57001 0.499203 1.96824 0.344179C2.26904 0.226844 2.72078 0.0881762 3.55279 0.0499536C4.33999 0.0143977 4.64506 0.00373092 6.23548 0.00195312V0.00408648ZM11.5559 1.42093C10.9906 1.42093 10.5319 1.87907 10.5319 2.44458C10.5319 3.00992 10.9906 3.46859 11.5559 3.46859C12.1212 3.46859 12.5799 3.00992 12.5799 2.44458C12.5799 1.87924 12.1212 1.42057 11.5559 1.42057V1.42093ZM2.6188 6.9988C2.6188 4.57875 4.58086 2.61663 7.0009 2.61654C9.42101 2.61654 11.3826 4.57869 11.3826 6.9988C11.3826 9.41892 9.42119 11.3802 7.00107 11.3802C4.58096 11.3802 2.6188 9.41892 2.6188 6.9988Z" fill="#646464"/>
</svg>
